<svg xmlns="http://www.w3.org/2000/svg" viewBox="0 0 1413 809"><defs><style>.cls-1{fill:#8200ff;}.cls-2{fill:#fff;}</style></defs><title>Asset 6</title><g id="Layer_2" data-name="Layer 2"><g id="Layer_6" data-name="Layer 6"><rect class="cls-1" x="47" y="41" width="1366" height="768"/><ellipse class="cls-2" cx="1196.15" cy="303.07" rx="0.57" ry="0.67" transform="translate(306.77 1158.42) rotate(-58.1)"/><ellipse class="cls-2" cx="1029.77" cy="348.31" rx="3.98" ry="4.72" transform="translate(189.9 1038.5) rotate(-58.1)"/><ellipse class="cls-2" cx="1093.2" cy="233.63" rx="1.71" ry="2.02" transform="translate(317.18 1038.28) rotate(-58.1)"/><ellipse class="cls-2" cx="1090.52" cy="329.83" rx="2.85" ry="4.72" transform="translate(234.24 1081.37) rotate(-58.1)"/><ellipse class="cls-2" cx="1049.82" cy="253.55" rx="2.85" ry="4.05" transform="translate(279.81 1010.84) rotate(-58.1)"/><ellipse class="cls-2" cx="1165.05" cy="252.21" rx="2.28" ry="2.7" transform="translate(335.28 1108.04) rotate(-58.1)"/><ellipse class="cls-2" cx="1168.51" cy="346.2" rx="2.85" ry="2.7" transform="matrix(0.53, -0.85, 0.85, 0.53, 257.13, 1155.3)"/><ellipse class="cls-2" cx="1134.41" cy="300.17" rx="2.28" ry="2.02" transform="translate(280.12 1104.64) rotate(-58.1)"/><ellipse class="cls-2" cx="1187.96" cy="212.85" rx="3.41" ry="4.05" transform="matrix(0.53, -0.85, 0.85, 0.53, 379.51, 1108.93)"/><ellipse class="cls-2" cx="1106.96" cy="228.12" rx="1.14" ry="1.35" transform="translate(328.34 1047.36) rotate(-58.1)"/><ellipse class="cls-2" cx="1232.56" cy="296.91" rx="2.28" ry="2.7" transform="translate(329.17 1186.43) rotate(-58.1)"/><ellipse class="cls-2" cx="984.51" cy="267.86" rx="2.85" ry="3.37" transform="translate(236.86 962.15) rotate(-58.1)"/><ellipse class="cls-2" cx="1073.83" cy="283.91" rx="2.28" ry="2.7" transform="translate(265.35 1045.54) rotate(-58.1)"/><circle class="cls-2" cx="1261.86" cy="185.46" r="0.5"/><circle class="cls-2" cx="1123.09" cy="160.32" r="3.5"/><circle class="cls-2" cx="1222.46" cy="102.23" r="1.5"/><ellipse class="cls-2" cx="1174.7" cy="168.14" rx="2.5" ry="3.5" transform="translate(57.33 567.74) rotate(-27.82)"/><ellipse class="cls-2" cx="1182.4" cy="101.32" rx="2.5" ry="3" transform="translate(89.41 563.61) rotate(-27.82)"/><circle class="cls-2" cx="1264.21" cy="139.55" r="2"/><ellipse class="cls-2" cx="1221.83" cy="206.02" rx="2.5" ry="2" transform="translate(45.1 594.12) rotate(-27.82)"/><ellipse class="cls-2" cx="1219.76" cy="162.45" rx="2" ry="1.5" transform="translate(65.2 588.11) rotate(-27.82)"/><circle class="cls-2" cx="1299.12" cy="120" r="3"/><circle class="cls-2" cx="1234.78" cy="103.07" r="1"/><circle class="cls-2" cx="1290.45" cy="193.55" r="2"/><circle class="cls-2" cx="1129.58" cy="89.06" r="2.5"/><circle class="cls-2" cx="1184.84" cy="130.56" r="2"/><circle class="cls-2" cx="411.94" cy="113.14" r="0.5"/><circle class="cls-2" cx="532.11" cy="186.97" r="3.5"/><circle class="cls-2" cx="418.42" cy="205" r="1.5"/><ellipse class="cls-2" cx="486.86" cy="160.94" rx="2.5" ry="3.5" transform="translate(-15.13 56.33) rotate(-6.52)"/><ellipse class="cls-2" cx="455.41" cy="220.39" rx="2.5" ry="3" transform="translate(-22.08 53.14) rotate(-6.52)"/><circle class="cls-2" cx="393.08" cy="155.05" r="2"/><ellipse class="cls-2" cx="456.71" cy="108.52" rx="2.5" ry="2" transform="translate(-9.37 52.57) rotate(-6.52)"/><ellipse class="cls-2" cx="442.82" cy="149.87" rx="2" ry="1.5" transform="translate(-14.15 51.26) rotate(-6.52)"/><circle class="cls-2" cx="353.45" cy="160.59" r="3"/><circle class="cls-2" cx="407.25" cy="199.73" r="1"/><circle class="cls-2" cx="388.25" cy="95.21" r="2"/><circle class="cls-2" cx="500.17" cy="251.01" r="2.5"/><circle class="cls-2" cx="463.77" cy="192.26" r="2"/></g><g id="Layer_7" data-name="Layer 7"><ellipse class="cls-2" cx="107.5" cy="98" rx="107.5" ry="98"/><circle class="cls-2" cx="1248.5" cy="432.5" r="61.5"/></g><g id="Layer_8" data-name="Layer 8"><circle class="cls-2" cx="326.5" cy="138.5" r="0.5"/><circle class="cls-2" cx="326.5" cy="138.5" r="0.5"/><circle class="cls-2" cx="239.5" cy="249.5" r="3.5"/><circle class="cls-2" cx="234.5" cy="134.5" r="1.5"/><ellipse class="cls-2" cx="270.5" cy="207.5" rx="3.5" ry="2.5"/><ellipse class="cls-2" cx="243" cy="147.5" rx="3" ry="2.5"/><circle class="cls-2" cx="287" cy="115" r="2"/><ellipse class="cls-2" cx="326" cy="183.5" rx="2" ry="2.5"/><ellipse class="cls-2" cx="286.5" cy="165" rx="1.5" ry="2"/><circle class="cls-2" cx="286" cy="75" r="3"/><circle class="cls-2" cx="241" cy="124" r="1"/><circle class="cls-2" cx="347" cy="117" r="2"/><circle class="cls-2" cx="179.5" cy="210.5" r="2.5"/><circle class="cls-2" cx="242" cy="181" r="2"/><circle class="cls-2" cx="233.5" cy="344.5" r="0.5"/><circle class="cls-2" cx="146.5" cy="455.5" r="3.5"/><circle class="cls-2" cx="141.5" cy="340.5" r="1.5"/><ellipse class="cls-2" cx="177.5" cy="413.5" rx="3.5" ry="2.5"/><ellipse class="cls-2" cx="122" cy="375.5" rx="3" ry="2.5"/><circle class="cls-2" cx="194" cy="321" r="2"/><ellipse class="cls-2" cx="233" cy="389.5" rx="2" ry="2.5"/><ellipse class="cls-2" cx="193.5" cy="371" rx="1.5" ry="2"/><circle class="cls-2" cx="193" cy="281" r="3"/><circle class="cls-2" cx="148" cy="330" r="1"/><circle class="cls-2" cx="254" cy="323" r="2"/><circle class="cls-2" cx="86.5" cy="416.5" r="2.5"/><circle class="cls-2" cx="149" cy="387" r="2"/><circle class="cls-2" cx="447.04" cy="293.71" r="0.5"/><circle class="cls-2" cx="421.68" cy="432.44" r="3.5"/><circle class="cls-2" cx="363.74" cy="332.98" r="1.5"/><ellipse class="cls-2" cx="429.58" cy="380.84" rx="3.5" ry="2.5" transform="translate(-127.87 243.62) rotate(-27.73)"/><ellipse class="cls-2" cx="362.77" cy="373.03" rx="3" ry="2.5" transform="translate(-131.91 211.64) rotate(-27.73)"/><circle class="cls-2" cx="401.14" cy="291.29" r="2"/><ellipse class="cls-2" cx="467.54" cy="333.77" rx="2" ry="2.5" transform="translate(-101.61 255.88) rotate(-27.73)"/><ellipse class="cls-2" cx="423.96" cy="335.78" rx="1.5" ry="2" transform="translate(-107.55 235.83) rotate(-27.73)"/><circle class="cls-2" cx="381.64" cy="256.35" r="3"/><circle class="cls-2" cx="364.61" cy="320.66" r="1"/><circle class="cls-2" cx="455.18" cy="265.14" r="2"/><circle class="cls-2" cx="350.42" cy="425.84" r="2.5"/><circle class="cls-2" cx="392.02" cy="370.65" r="2"/><ellipse class="cls-2" cx="995.23" cy="225.96" rx="0.59" ry="0.58" transform="translate(148.01 794.96) rotate(-46.68)"/><ellipse class="cls-2" cx="832.81" cy="251.48" rx="4.1" ry="4.05" transform="translate(78.46 684.8) rotate(-46.68)"/><ellipse class="cls-2" cx="921.01" cy="149.52" rx="1.76" ry="1.74" transform="translate(180.33 716.97) rotate(-46.68)"/><ellipse class="cls-2" cx="892.65" cy="240.3" rx="2.93" ry="4.05" transform="translate(105.38 724.83) rotate(-46.68)"/><ellipse class="cls-2" cx="876.47" cy="163.86" rx="2.93" ry="3.47" transform="translate(155.91 689.07) rotate(-46.68)"/><ellipse class="cls-2" cx="980.87" cy="174.58" rx="2.34" ry="2.31" transform="translate(180.88 768.38) rotate(-46.68)"/><ellipse class="cls-2" cx="958.65" cy="263.9" rx="2.93" ry="2.31" transform="translate(108.92 780.26) rotate(-46.68)"/><ellipse class="cls-2" cx="940.27" cy="216.78" rx="2.34" ry="1.74" transform="translate(137.43 752.09) rotate(-46.68)"/><ellipse class="cls-2" cx="1012.18" cy="139.7" rx="3.51" ry="3.47" transform="translate(216.08 780.21) rotate(-46.68)"/><ellipse class="cls-2" cx="934.92" cy="145.73" rx="1.17" ry="1.16" transform="translate(187.45 725.9) rotate(-46.68)"/><ellipse class="cls-2" cx="1029.77" cy="223.91" rx="2.34" ry="2.31" transform="translate(160.34 819.44) rotate(-46.68)"/><ellipse class="cls-2" cx="813.64" cy="170.62" rx="2.93" ry="2.89" transform="translate(131.27 645.48) rotate(-46.68)"/><ellipse class="cls-2" cx="889.96" cy="195.09" rx="2.34" ry="2.31" transform="translate(137.42 708.68) rotate(-46.68)"/></g></g></svg>