<svg xmlns="http://www.w3.org/2000/svg" viewBox="0 0 1367 261.18"><defs><style>.cls-1{fill:#dbdbdb}.cls-2{fill:#fff}</style></defs><title>Asset 4</title><g id="Layer_2" data-name="Layer 2"><g id="Layer_5" data-name="Layer 5"><path d="M728.5,93.68a13.21,13.21,0,0,0,3,8c4.24,4.76,10.84,3.27,21,6,7,1.9,10.78,4.47,14,6,20.23,9.61,57.5-1.5,57.5-1.5,79.56-23.71,136.62-42.22,186-33,39.59,7.4,40.28,23.51,86,37,60.67,17.91,117.62,6.72,157-6-2.61,6.94-4.87,16.42-3,27a43.94,43.94,0,0,0,3,10c4.06,9.59,4.74,39.48-4,114H115v-131a314.91,314.91,0,0,0,101,7c108.52-10.37,152.85-74.26,242-68,23,1.62,57.21,8.47,98,35a143.87,143.87,0,0,0,48,11c15.55.79,38.42,1.94,47-11,3.53-5.31.94-7.44,4-16,5.06-14.17,20.37-31.41,39.5-30.5,15.22.73,24.87,12.58,26,14A38,38,0,0,1,728.5,93.68Z" class="cls-1"/></g><g id="Layer_2-2" data-name="Layer 2"><path d="M0,60.18C29.28,12.51,85.14-10,135,4.18c40.36,11.45,71.61,45.4,82,88,93.43-59,194.45-58.13,244-8,9.91,10,28.46,32.85,34,76,38.18-40.14,93.1-48.28,128-25,28.74,19.17,34.76,53.57,36,62,28.46-15.89,57.73-15.66,72-1,3,3.06,7.06,8.56,9,18,12.62-46.23,50.76-80.25,96-86,57.72-7.33,96.67,35.24,100,39,53.37-50.35,122.13-64,168-37,9.51,5.6,29.3,19.56,43,51-6.45-58.58,25-114.48,77-138,47-21.24,103-12.63,143,22v196H1Z" class="cls-2"/></g></g></svg>