<svg xmlns="http://www.w3.org/2000/svg" xmlns:xlink="http://www.w3.org/1999/xlink" width="1366" height="768" viewBox="0 0 1366 768"><defs><linearGradient id="linear-gradient" x1=".5" x2=".5" y2="1" gradientUnits="objectBoundingBox"><stop offset="0" stop-color="#c4c4c4"/><stop offset="1" stop-color="#f9f5f5"/></linearGradient><linearGradient id="linear-gradient-2" x1=".5" x2=".5" y2="1" gradientUnits="objectBoundingBox"><stop offset="0" stop-color="#6c63ff"/><stop offset="1" stop-color="#c0f"/></linearGradient><linearGradient id="linear-gradient-3" x1=".5" x2=".5" y2="1" gradientUnits="objectBoundingBox"><stop offset="0" stop-color="#6c63ff"/><stop offset="1" stop-color="#e600ff"/></linearGradient><clipPath id="clip-logo"><rect width="1366" height="768"/></clipPath></defs><g id="logo" clip-path="url(#clip-logo)"><g id="Group_1" data-name="Group 1" transform="translate(146.999 92)"><path id="Path_1" fill="url(#linear-gradient)" d="M583.48,324.894c-85.944,0-147.651,55.139-147.651,183.8,0,145.813,61.707,184.411,147.651,184.411S734.807,650.83,734.807,508.692C734.807,356.753,669.424,324.894,583.48,324.894Zm.565,319.808c-59.527,0-90.626-34.923-90.626-135.916,0-89.112,32.372-136.1,91.9-136.1s91.9,30.868,91.9,136.1c0,98.448-33.646,135.917-93.172,135.917Z" data-name="Path 1" transform="translate(-63.054 -157.885)"/><path id="Path_2" fill="url(#linear-gradient-2)" d="M384.365,591.4H348.831V486.762a20.956,20.956,0,0,0-20.956-20.956h-8.326a20.956,20.956,0,0,0-20.956,20.956V591.4H198.363a11.963,11.963,0,0,1-10.578-17.552l106.082-200.78a20.956,20.956,0,0,0-9.58-28.739l-6.262-2.957a20.956,20.956,0,0,0-27.429,9.07L121.214,592.475a28.416,28.416,0,0,0-3.356,13.4h0a28.416,28.416,0,0,0,28.416,28.416H298.593v66.167a25.119,25.119,0,0,0,25.119,25.119h0a25.119,25.119,0,0,0,25.119-25.119V634.287h35.534a21.443,21.443,0,0,0,21.443-21.443h0A21.443,21.443,0,0,0,384.365,591.4Z" data-name="Path 2" transform="translate(-63.054 -157.885)"/><path id="Path_3" fill="url(#linear-gradient-3)" d="M1042.36,591.4h-35.534V486.762a20.956,20.956,0,0,0-20.954-20.956h-8.326a20.956,20.956,0,0,0-20.956,20.956V591.4H856.359a11.963,11.963,0,0,1-10.578-17.552l106.083-200.78a20.956,20.956,0,0,0-9.58-28.739l-6.262-2.957a20.956,20.956,0,0,0-27.429,9.07L779.211,592.475a28.416,28.416,0,0,0-3.356,13.4h0a28.416,28.416,0,0,0,28.416,28.416H956.589v66.167a25.119,25.119,0,0,0,25.119,25.119h0a25.119,25.119,0,0,0,25.119-25.119V634.287h35.534a21.443,21.443,0,0,0,21.443-21.443h0A21.443,21.443,0,0,0,1042.36,591.4Z" data-name="Path 3" transform="translate(-63.054 -157.885)"/><path id="Path_4" fill="none" stroke="#3f3d56" stroke-miterlimit="10" stroke-width="1" d="M394.168,579.148H358.634V474.509a20.956,20.956,0,0,0-20.956-20.956h-8.326A20.956,20.956,0,0,0,308.4,474.509V579.148H208.165A11.963,11.963,0,0,1,197.587,561.6L303.67,360.816a20.956,20.956,0,0,0-9.58-28.739l-6.262-2.957a20.956,20.956,0,0,0-27.429,9.07L131.017,580.222a28.416,28.416,0,0,0-3.356,13.4h0a28.416,28.416,0,0,0,28.416,28.416H308.395V688.2a25.119,25.119,0,0,0,25.119,25.119h0A25.119,25.119,0,0,0,358.633,688.2V622.034h35.534a21.443,21.443,0,0,0,21.443-21.443h0a21.443,21.443,0,0,0-21.442-21.443Z" data-name="Path 4" transform="translate(-63.054 -157.885)"/><path id="Path_5" fill="none" stroke="#3f3d56" stroke-miterlimit="10" stroke-width="1" d="M1060.74,579.148h-35.534V474.509a20.956,20.956,0,0,0-20.956-20.956h-8.325a20.956,20.956,0,0,0-20.956,20.956V579.148H874.739A11.963,11.963,0,0,1,864.162,561.6l106.082-200.78a20.956,20.956,0,0,0-9.58-28.739L954.4,329.12a20.956,20.956,0,0,0-27.429,9.07L797.59,580.222a28.416,28.416,0,0,0-3.356,13.4h0a28.416,28.416,0,0,0,28.416,28.416H974.969V688.2a25.119,25.119,0,0,0,25.119,25.119h0a25.119,25.119,0,0,0,25.119-25.119V622.034h35.534a21.443,21.443,0,0,0,21.443-21.443h0a21.443,21.443,0,0,0-21.444-21.443Z" data-name="Path 5" transform="translate(-63.054 -157.885)"/><path id="Path_6" fill="none" stroke="#3f3d56" stroke-miterlimit="10" stroke-width="1" d="M603.085,313.866c-85.944,0-147.651,55.139-147.651,183.8,0,145.813,61.707,184.411,147.651,184.411S754.412,639.8,754.412,497.664C754.412,345.725,689.029,313.866,603.085,313.866Zm.565,319.808c-59.527,0-90.626-34.923-90.626-135.916,0-89.112,32.372-136.1,91.9-136.1s91.9,30.868,91.9,136.1c0,98.448-33.645,135.917-93.172,135.917Z" data-name="Path 6" transform="translate(-63.054 -157.885)"/></g></g></svg>